<svg width="329" height="560" viewBox="0 0 329 560" fill="none" xmlns="http://www.w3.org/2000/svg">
<g filter="url(#filter0_d_14_332)">
<path d="M4 222V3H319V222M4 222H82.75M4 222V303M319 222H279.625H240.25M319 222V303M161.5 222V546M161.5 222H240.25M161.5 222H82.75M161.5 546H240.25M161.5 546H82.75M240.25 222V465M240.25 546H319V384M240.25 546V465M82.75 222V546M82.75 546H4V465M4 384H319M4 384V303M4 384V465M319 384V303M4 303H319M4 465H240.25" stroke="black" stroke-width="5" shape-rendering="crispEdges"/>
</g>
<path d="M45.4636 252.818V271H43.2619V255.126H43.1554L38.7164 258.074V255.837L43.2619 252.818H45.4636Z" fill="black"/>
<path d="M115.814 272V270.402L121.815 263.832C122.519 263.063 123.099 262.394 123.555 261.826C124.011 261.252 124.348 260.713 124.567 260.21C124.792 259.701 124.905 259.169 124.905 258.612C124.905 257.973 124.751 257.42 124.443 256.952C124.141 256.484 123.727 256.123 123.2 255.869C122.673 255.614 122.081 255.487 121.425 255.487C120.726 255.487 120.117 255.632 119.596 255.922C119.081 256.206 118.681 256.606 118.397 257.121C118.119 257.636 117.98 258.239 117.98 258.932H115.885C115.885 257.866 116.13 256.931 116.622 256.126C117.113 255.321 117.782 254.694 118.628 254.244C119.48 253.795 120.436 253.57 121.496 253.57C122.561 253.57 123.505 253.795 124.328 254.244C125.15 254.694 125.795 255.301 126.263 256.064C126.731 256.828 126.964 257.677 126.964 258.612C126.964 259.281 126.843 259.935 126.6 260.574C126.364 261.208 125.949 261.915 125.357 262.696C124.771 263.471 123.958 264.418 122.916 265.537L118.832 269.905V270.047H127.284V272H115.814Z" fill="black"/>
<path d="M200.067 272.249C198.895 272.249 197.85 272.047 196.933 271.645C196.021 271.242 195.296 270.683 194.758 269.967C194.225 269.245 193.935 268.407 193.888 267.455H196.125C196.172 268.04 196.373 268.547 196.729 268.973C197.084 269.393 197.548 269.718 198.122 269.949C198.696 270.18 199.333 270.295 200.031 270.295C200.812 270.295 201.505 270.159 202.108 269.887C202.712 269.615 203.186 269.236 203.529 268.751C203.872 268.265 204.044 267.703 204.044 267.064C204.044 266.395 203.878 265.806 203.547 265.297C203.215 264.782 202.73 264.38 202.091 264.09C201.452 263.8 200.67 263.655 199.747 263.655H198.291V261.702H199.747C200.469 261.702 201.102 261.571 201.647 261.311C202.197 261.051 202.626 260.684 202.934 260.21C203.248 259.737 203.405 259.18 203.405 258.541C203.405 257.926 203.269 257.39 202.996 256.934C202.724 256.479 202.339 256.123 201.842 255.869C201.351 255.614 200.771 255.487 200.102 255.487C199.475 255.487 198.883 255.603 198.327 255.833C197.776 256.058 197.326 256.387 196.977 256.819C196.628 257.245 196.439 257.76 196.409 258.364H194.278C194.314 257.411 194.601 256.576 195.139 255.86C195.678 255.138 196.382 254.576 197.252 254.173C198.128 253.771 199.09 253.57 200.138 253.57C201.262 253.57 202.227 253.797 203.032 254.253C203.837 254.703 204.455 255.298 204.887 256.038C205.319 256.777 205.535 257.576 205.535 258.435C205.535 259.459 205.266 260.332 204.727 261.054C204.195 261.776 203.47 262.276 202.552 262.554V262.696C203.701 262.885 204.597 263.374 205.242 264.161C205.887 264.942 206.21 265.91 206.21 267.064C206.21 268.052 205.941 268.94 205.402 269.727C204.869 270.509 204.142 271.124 203.218 271.574C202.295 272.024 201.244 272.249 200.067 272.249Z" fill="black"/>
<path d="M36.4359 348.271V346.46L44.426 333.818H45.7399V336.624H44.8521L38.8152 346.176V346.318H49.5752V348.271H36.4359ZM44.9942 352V347.721V346.877V333.818H47.0894V352H44.9942Z" fill="black"/>
<path d="M121.459 352.249C120.417 352.249 119.479 352.041 118.645 351.627C117.81 351.213 117.141 350.645 116.638 349.923C116.135 349.201 115.86 348.378 115.813 347.455H117.943C118.026 348.277 118.399 348.958 119.062 349.496C119.731 350.029 120.53 350.295 121.459 350.295C122.205 350.295 122.868 350.121 123.448 349.772C124.034 349.422 124.492 348.943 124.824 348.333C125.161 347.718 125.33 347.022 125.33 346.247C125.33 345.454 125.155 344.747 124.806 344.125C124.463 343.498 123.989 343.004 123.385 342.643C122.782 342.282 122.092 342.098 121.317 342.092C120.761 342.086 120.189 342.172 119.603 342.35C119.018 342.521 118.535 342.743 118.156 343.016L116.097 342.767L117.198 333.818H126.644V335.771H119.044L118.405 341.134H118.511C118.884 340.838 119.352 340.592 119.914 340.397C120.476 340.201 121.062 340.104 121.672 340.104C122.785 340.104 123.776 340.37 124.646 340.903C125.522 341.429 126.209 342.152 126.706 343.069C127.209 343.986 127.46 345.034 127.46 346.212C127.46 347.372 127.2 348.407 126.679 349.319C126.164 350.224 125.454 350.941 124.548 351.467C123.643 351.988 122.613 352.249 121.459 352.249Z" fill="black"/>
<path d="M201.119 351.249C200.373 351.237 199.627 351.095 198.882 350.822C198.136 350.55 197.455 350.092 196.84 349.446C196.224 348.795 195.73 347.916 195.357 346.81C194.984 345.697 194.798 344.3 194.798 342.619C194.798 341.009 194.949 339.583 195.25 338.34C195.552 337.091 195.99 336.041 196.564 335.189C197.139 334.33 197.831 333.679 198.642 333.235C199.459 332.792 200.379 332.57 201.403 332.57C202.421 332.57 203.326 332.774 204.119 333.182C204.918 333.585 205.569 334.147 206.073 334.869C206.576 335.591 206.901 336.423 207.049 337.364H204.883C204.682 336.547 204.291 335.869 203.711 335.331C203.131 334.792 202.362 334.523 201.403 334.523C199.994 334.523 198.884 335.135 198.074 336.36C197.269 337.586 196.863 339.305 196.857 341.518H196.999C197.331 341.015 197.724 340.586 198.18 340.231C198.642 339.87 199.151 339.592 199.707 339.397C200.264 339.201 200.852 339.104 201.474 339.104C202.516 339.104 203.468 339.364 204.333 339.885C205.197 340.4 205.889 341.113 206.41 342.025C206.931 342.93 207.191 343.969 207.191 345.141C207.191 346.265 206.94 347.295 206.437 348.23C205.933 349.159 205.226 349.899 204.315 350.45C203.409 350.994 202.344 351.26 201.119 351.249ZM201.119 349.295C201.864 349.295 202.533 349.109 203.125 348.736C203.723 348.363 204.193 347.863 204.537 347.236C204.886 346.608 205.061 345.91 205.061 345.141C205.061 344.389 204.892 343.705 204.554 343.09C204.223 342.468 203.764 341.974 203.178 341.607C202.598 341.24 201.936 341.057 201.19 341.057C200.628 341.057 200.104 341.169 199.618 341.394C199.133 341.613 198.707 341.915 198.34 342.3C197.979 342.684 197.695 343.125 197.488 343.623C197.281 344.114 197.177 344.632 197.177 345.176C197.177 345.898 197.346 346.573 197.683 347.2C198.026 347.828 198.494 348.334 199.086 348.718C199.683 349.103 200.361 349.295 201.119 349.295Z" fill="black"/>
<path d="M37.8092 433L45.9413 416.913V416.771H36.5663V414.818H48.214V416.878L40.1174 433H37.8092Z" fill="black"/>
<path d="M121.003 435.249C119.784 435.249 118.707 435.033 117.772 434.6C116.843 434.163 116.118 433.562 115.597 432.798C115.076 432.029 114.818 431.153 114.824 430.17C114.818 429.401 114.969 428.691 115.277 428.04C115.585 427.383 116.005 426.835 116.538 426.397C117.076 425.953 117.677 425.672 118.34 425.554V425.447C117.47 425.223 116.777 424.734 116.263 423.983C115.748 423.225 115.493 422.364 115.499 421.399C115.493 420.476 115.727 419.65 116.2 418.922C116.674 418.194 117.325 417.62 118.154 417.2C118.988 416.78 119.938 416.57 121.003 416.57C122.057 416.57 122.998 416.78 123.826 417.2C124.655 417.62 125.306 418.194 125.78 418.922C126.259 419.65 126.502 420.476 126.508 421.399C126.502 422.364 126.238 423.225 125.717 423.983C125.203 424.734 124.519 425.223 123.667 425.447V425.554C124.324 425.672 124.915 425.953 125.442 426.397C125.969 426.835 126.389 427.383 126.703 428.04C127.017 428.691 127.176 429.401 127.182 430.17C127.176 431.153 126.91 432.029 126.383 432.798C125.862 433.562 125.137 434.163 124.208 434.6C123.285 435.033 122.217 435.249 121.003 435.249ZM121.003 433.295C121.826 433.295 122.536 433.162 123.134 432.896C123.732 432.63 124.193 432.254 124.519 431.768C124.844 431.283 125.01 430.715 125.016 430.064C125.01 429.377 124.833 428.771 124.483 428.244C124.134 427.717 123.658 427.303 123.054 427.001C122.456 426.699 121.773 426.548 121.003 426.548C120.228 426.548 119.536 426.699 118.926 427.001C118.322 427.303 117.846 427.717 117.497 428.244C117.153 428.771 116.985 429.377 116.991 430.064C116.985 430.715 117.141 431.283 117.461 431.768C117.787 432.254 118.251 432.63 118.855 432.896C119.459 433.162 120.175 433.295 121.003 433.295ZM121.003 424.666C121.654 424.666 122.231 424.536 122.735 424.276C123.244 424.015 123.643 423.651 123.933 423.184C124.223 422.716 124.371 422.169 124.377 421.541C124.371 420.926 124.226 420.39 123.942 419.934C123.658 419.473 123.264 419.118 122.761 418.869C122.258 418.614 121.672 418.487 121.003 418.487C120.323 418.487 119.728 418.614 119.219 418.869C118.71 419.118 118.316 419.473 118.038 419.934C117.76 420.39 117.624 420.926 117.63 421.541C117.624 422.169 117.763 422.716 118.047 423.184C118.337 423.651 118.737 424.015 119.246 424.276C119.755 424.536 120.34 424.666 121.003 424.666Z" fill="black"/>
<path d="M199.87 416.57C200.616 416.576 201.362 416.718 202.107 416.996C202.853 417.274 203.534 417.736 204.149 418.381C204.765 419.02 205.259 419.893 205.632 421C206.005 422.106 206.191 423.494 206.191 425.163C206.191 426.779 206.037 428.214 205.73 429.469C205.428 430.718 204.99 431.771 204.416 432.63C203.847 433.488 203.155 434.139 202.338 434.583C201.527 435.027 200.61 435.249 199.586 435.249C198.568 435.249 197.66 435.047 196.861 434.645C196.067 434.237 195.416 433.671 194.907 432.949C194.404 432.221 194.082 431.378 193.94 430.419H196.106C196.301 431.254 196.689 431.943 197.269 432.488C197.855 433.026 198.627 433.295 199.586 433.295C200.989 433.295 202.096 432.683 202.906 431.458C203.723 430.233 204.132 428.501 204.132 426.264H203.989C203.658 426.761 203.264 427.19 202.809 427.551C202.353 427.913 201.847 428.191 201.291 428.386C200.734 428.581 200.142 428.679 199.515 428.679C198.473 428.679 197.518 428.422 196.648 427.907C195.783 427.386 195.091 426.673 194.57 425.767C194.055 424.856 193.798 423.814 193.798 422.642C193.798 421.529 194.046 420.511 194.543 419.588C195.047 418.659 195.751 417.919 196.656 417.369C197.568 416.818 198.639 416.552 199.87 416.57ZM199.87 418.523C199.124 418.523 198.453 418.709 197.855 419.082C197.263 419.449 196.793 419.946 196.443 420.574C196.1 421.195 195.928 421.884 195.928 422.642C195.928 423.4 196.094 424.089 196.426 424.711C196.763 425.326 197.222 425.817 197.802 426.184C198.388 426.545 199.053 426.726 199.799 426.726C200.361 426.726 200.885 426.616 201.371 426.397C201.856 426.172 202.279 425.868 202.64 425.483C203.007 425.092 203.294 424.651 203.501 424.16C203.708 423.663 203.812 423.145 203.812 422.607C203.812 421.896 203.64 421.23 203.297 420.609C202.96 419.988 202.492 419.484 201.894 419.1C201.302 418.715 200.628 418.523 199.87 418.523Z" fill="black"/>
<path d="M121 513.249C119.662 513.249 118.523 512.885 117.582 512.157C116.641 511.423 115.922 510.36 115.425 508.969C114.928 507.573 114.679 505.886 114.679 503.909C114.679 501.944 114.928 500.266 115.425 498.875C115.928 497.479 116.65 496.413 117.591 495.679C118.538 494.94 119.674 494.57 121 494.57C122.326 494.57 123.459 494.94 124.4 495.679C125.347 496.413 126.069 497.479 126.566 498.875C127.069 500.266 127.321 501.944 127.321 503.909C127.321 505.886 127.072 507.573 126.575 508.969C126.078 510.36 125.359 511.423 124.418 512.157C123.477 512.885 122.338 513.249 121 513.249ZM121 511.295C122.326 511.295 123.356 510.656 124.089 509.378C124.823 508.099 125.19 506.277 125.19 503.909C125.19 502.335 125.022 500.994 124.684 499.887C124.353 498.781 123.873 497.937 123.246 497.357C122.625 496.777 121.876 496.487 121 496.487C119.686 496.487 118.659 497.135 117.919 498.431C117.18 499.722 116.81 501.548 116.81 503.909C116.81 505.483 116.975 506.821 117.307 507.922C117.638 509.023 118.115 509.86 118.736 510.434C119.364 511.008 120.118 511.295 121 511.295Z" fill="black"/>
<path d="M278.505 269.757V258.038H280.493V269.757H278.505ZM273.64 264.892V262.903H285.358V264.892H273.64Z" fill="black"/>
<path d="M274.53 465.229V463.311H285.468V465.229H274.53ZM274.53 470.484V468.567H285.468V470.484H274.53Z" fill="black"/>
<path d="M283.981 342.229V344.182H276.026V342.229H283.981Z" fill="black"/>
<path d="M203.363 507.33C203.363 509.567 203.07 511.626 202.484 513.509C201.904 515.385 201.073 517.113 199.99 518.693H198.143C198.569 518.107 198.966 517.385 199.333 516.527C199.706 515.675 200.031 514.74 200.309 513.722C200.587 512.698 200.803 511.641 200.957 510.552C201.117 509.457 201.197 508.383 201.197 507.33C201.197 505.921 201.061 504.492 200.789 503.042C200.516 501.592 200.149 500.245 199.688 499.002C199.226 497.759 198.711 496.747 198.143 495.966H199.99C201.073 497.546 201.904 499.277 202.484 501.159C203.07 503.036 203.363 505.092 203.363 507.33Z" fill="#010101"/>
<path d="M41.6345 507.33C41.6345 505.092 41.9246 503.036 42.5046 501.159C43.0905 499.277 43.925 497.546 45.0081 495.966H46.8547C46.4286 496.552 46.0291 497.274 45.6562 498.132C45.2893 498.984 44.9667 499.922 44.6885 500.946C44.4103 501.964 44.1914 503.018 44.0316 504.107C43.8777 505.196 43.8007 506.27 43.8007 507.33C43.8007 508.738 43.9369 510.167 44.2091 511.618C44.4814 513.068 44.8483 514.414 45.31 515.657C45.7716 516.9 46.2865 517.912 46.8547 518.693H45.0081C43.925 517.113 43.0905 515.385 42.5046 513.509C41.9246 511.626 41.6345 509.567 41.6345 507.33Z" fill="black"/>
<defs>
<filter id="filter0_d_14_332" x="0.5" y="0.5" width="328" height="559" filterUnits="userSpaceOnUse" color-interpolation-filters="sRGB">
<feFlood flood-opacity="0" result="BackgroundImageFix"/>
<feColorMatrix in="SourceAlpha" type="matrix" values="0 0 0 0 0 0 0 0 0 0 0 0 0 0 0 0 0 0 127 0" result="hardAlpha"/>
<feOffset dx="3" dy="7"/>
<feGaussianBlur stdDeviation="2"/>
<feComposite in2="hardAlpha" operator="out"/>
<feColorMatrix type="matrix" values="0 0 0 0 0 0 0 0 0 0 0 0 0 0 0 0 0 0 0.25 0"/>
<feBlend mode="normal" in2="BackgroundImageFix" result="effect1_dropShadow_14_332"/>
<feBlend mode="normal" in="SourceGraphic" in2="effect1_dropShadow_14_332" result="shape"/>
</filter>
</defs>
</svg>
