<svg width="83" height="79" viewBox="0 0 83 79" fill="none" xmlns="http://www.w3.org/2000/svg">
<path d="M17.3517 49.5091C17.3517 47.057 37.9975 48.4874 48.3204 49.5091L34.3845 11.1953L17.3517 49.5091Z" stroke="black"/>
<path d="M28.1908 35.7161C22.1456 35.7161 14.7595 31.604 8.40522 35.7161C4.74582 38.0843 0.437324 48.123 3.7599 52.2336C6.90927 56.13 17.0996 60.237 21.9971 60.237C26.2576 60.237 27.5487 49.1352 26.6424 46.444" stroke="white" stroke-width="3" stroke-linecap="round"/>
<path d="M45.2235 37.2487C39.3879 37.2487 34.7647 37.3384 29.7392 40.6544C22.6469 45.334 21.6447 50.8103 29.8252 53.3405C32.4322 54.1468 47.1082 55.624 48.2344 51.7228C49.5832 47.0506 40.6817 42.4254 37.4814 40.3138" stroke="white" stroke-width="3" stroke-linecap="round"/>
<path d="M26.6423 38.7812C26.6423 33.6141 25.4821 30.1545 26.5563 24.3071C27.2476 20.544 30.4992 14.0234 33.6963 18.0918C37.782 23.2909 40.5783 23.6003 40.5783 31.1185C40.5783 36.7213 40.3276 41.3062 39.0298 46.444" stroke="white" stroke-width="3" stroke-linecap="round"/>
<path d="M12.7064 14.2604C20.3275 13.8414 27.085 10.913 35.0727 11.1953C39.5005 11.3518 43.1145 13.3569 47.3742 14.0901C47.6087 14.1305 52.1302 14.3886 51.9334 14.601C40.788 26.6349 21.5755 34.1524 7.2008 41.5058C-0.56398 45.4779 1.04873 45.9402 7.5449 44.9115C17.4484 43.3431 23.5086 42.5529 30.5134 34.7796C32.5271 32.5449 45.8117 20.287 41.8686 18.0918C35.4476 14.517 28.5058 9.8172 21.2228 8.21535C11.3192 6.03713 27.9161 23.0387 28.8789 24.1369C31.4209 27.0361 56.9987 48.5557 55.7185 51.3822C49.0222 66.167 23.1687 73.6963 8.74924 76.7545C5.53022 77.4372 8.12825 73.4261 8.06104 70.9648C7.82035 62.1504 1.09391 51.3313 4.27597 42.7829C5.77628 38.7524 12.1987 39.3914 15.6312 39.1218C28.5271 38.1088 41.4269 36.5682 54.3421 35.8864C59.456 35.6165 65.167 37.5558 65.3532 31.2888C65.535 25.1708 65.3532 19.0191 65.3532 12.8981C65.3532 -6.04249 66.664 18.9802 66.8156 24.3071C67.1706 36.7795 66.9017 49.291 66.9017 61.7695" stroke="white" stroke-width="3" stroke-linecap="round"/>
<path d="M8.06105 12.7279C23.4555 13.5744 47.8015 24.4747 58.8154 35.3756C68.2446 44.708 52.4778 56.6219 44.0192 60.237C41.3866 61.3621 34.7938 65.5852 32.0618 62.2804C27.7516 57.0663 24.6489 45.0062 27.3305 38.4407C33.6046 23.0799 49.0485 19.6486 62.2564 12.7279C63.1731 12.2476 68.2781 8.8301 68.2781 7.36395C68.2781 6.32834 64.8456 5.58954 64.1489 5.74625C61.5664 6.32716 68.9858 18.5373 69.6545 20.0501C70.7522 22.5335 76.7719 34.1836 73.7836 34.1836C63.8788 34.1836 56.4411 23.4898 52.1055 16.1336C50.2256 12.944 45.8294 4.18267 41.0944 7.61937C35.8743 11.4081 30.969 15.5844 25.61 19.1987C18.7902 23.7981 9.32879 26.5495 3.24369 31.9699C2.14405 32.9494 5.55545 32.6511 5.91044 32.6511C13.8917 32.6511 20.6061 36.6016 27.4165 40.3138C36.1498 45.0741 45.0602 50.9878 54.5142 54.1068" stroke="#367BCB" stroke-width="3" stroke-linecap="round"/>
<path d="M51.4173 40.3138C41.0085 40.3138 30.3905 66.2299 18.0399 56.9164C12.8906 53.0334 9.88915 46.731 11.33 40.3138C11.8749 37.887 14.5797 30.6029 18.0399 31.4591C26.7618 33.6172 36.1305 39.2313 40.9223 46.7846C43.4743 50.8071 45.7201 52.4643 49.8689 54.1068C52.8589 55.2905 52.6412 59.9395 57.6111 58.5341C59.2108 58.0818 64.7294 53.8091 65.3532 52.5742" stroke="#814D99" stroke-width="3" stroke-linecap="round"/>
<path d="M21.997 2C22.9287 7.07192 31.1616 19.5048 35.9329 21.5826C40.979 23.7801 52.7204 17.8889 57.0089 16.4741C65.0252 13.8294 73.0497 11.2134 80.8376 8.13021" stroke="#913636" stroke-width="3" stroke-linecap="round"/>
</svg>
