<svg width="55" height="53" viewBox="0 0 55 53" fill="none" xmlns="http://www.w3.org/2000/svg">
<path d="M12 33C12 31.4 25.3333 32.3333 32 33L23 8L12 33Z" stroke="black"/>
<path d="M19 24C15.0959 24 10.326 21.3168 6.22225 24C3.85897 25.5452 1.07649 32.0956 3.22225 34.7778C5.25615 37.3201 11.8372 40 15 40C17.7515 40 18.5854 32.756 18 31" stroke="white" stroke-width="3" stroke-linecap="round"/>
<path d="M30 25C26.2312 25 23.2455 25.0585 20 27.2222C15.4197 30.2757 14.7725 33.849 20.0555 35.5C21.7392 36.0261 31.2171 36.99 31.9444 34.4444C32.8155 31.3958 27.0668 28.3779 25 27" stroke="white" stroke-width="3" stroke-linecap="round"/>
<path d="M18 26C18 22.6284 17.2507 20.371 17.9444 16.5556C18.3909 14.1001 20.4908 9.84535 22.5556 12.5C25.1941 15.8925 27 16.0943 27 21C27 24.6559 26.8381 27.6475 26 31" stroke="white" stroke-width="3" stroke-linecap="round"/>
<path d="M8.99999 10C13.9218 9.72656 18.2859 7.81576 23.4444 8C26.304 8.10212 28.638 9.41047 31.3889 9.88889C31.5404 9.91523 34.4604 10.0836 34.3333 10.2222C27.1355 18.0744 14.7278 22.9796 5.44443 27.7778C0.429844 30.3696 1.47135 30.6712 5.66666 30C12.0625 28.9767 15.9762 28.461 20.5 23.3889C21.8005 21.9308 30.3798 13.9324 27.8333 12.5C23.6866 10.1674 19.2035 7.10077 14.5 6.05555C8.10415 4.63426 18.8227 15.7279 19.4444 16.4444C21.0861 18.3362 37.6045 32.3779 36.7778 34.2222C32.4532 43.8694 15.7567 48.7823 6.44443 50.7778C4.36555 51.2232 6.0434 48.606 5.99999 47C5.84455 41.2485 1.50053 34.189 3.55555 28.6111C4.52446 25.9812 8.67211 26.3982 10.8889 26.2222C19.2172 25.5612 27.5481 24.556 35.8889 24.1111C39.1915 23.935 42.8797 25.2004 43 21.1111C43.1174 17.1191 43 13.1051 43 9.11111C43 -3.24778 43.8465 13.0797 43.9444 16.5556C44.1737 24.6938 44 32.8577 44 41" stroke="white" stroke-width="3" stroke-linecap="round"/>
<path d="M5.99999 9.00001C15.9419 9.55234 31.6649 16.6649 38.7778 23.7778C44.8673 29.8673 34.6849 37.6411 29.2222 40C27.522 40.7342 23.2643 43.4897 21.5 41.3333C18.7164 37.9311 16.7126 30.0618 18.4444 25.7778C22.4963 15.7547 32.4702 13.5158 41 9.00001C41.592 8.68659 44.8889 6.45668 44.8889 5.50001C44.8889 4.82427 42.6722 4.34219 42.2222 4.44445C40.5544 4.8235 45.3459 12.7907 45.7778 13.7778C46.4867 15.3982 50.3743 23 48.4444 23C42.0478 23 37.2444 16.0222 34.4444 11.2222C33.2304 9.14103 30.3912 3.4242 27.3333 5.66667C23.9622 8.13886 20.7942 10.8639 17.3333 13.2222C12.929 16.2234 6.81872 18.0187 2.88888 21.5556C2.17872 22.1947 4.38185 22 4.6111 22C9.76553 22 14.1017 24.5778 18.5 27C24.14 30.1061 29.8945 33.9648 36 36" stroke="#367BCB" stroke-width="3" stroke-linecap="round"/>
<path d="M34 27C27.2779 27 20.4206 43.9104 12.4444 37.8333C9.11897 35.2996 7.18059 31.1873 8.1111 27C8.46299 25.4165 10.2098 20.6636 12.4444 21.2222C18.0772 22.6304 24.1276 26.2937 27.2222 31.2222C28.8703 33.8469 30.3207 34.9283 33 36C34.931 36.7724 34.7904 39.8059 38 38.8889C39.0331 38.5937 42.5971 35.8058 43 35" stroke="#814D99" stroke-width="3" stroke-linecap="round"/>
<path d="M15 2C15.6017 5.30946 20.9186 13.422 24 14.7778C27.2588 16.2117 34.8416 12.3676 37.6111 11.4444C42.7881 9.71878 47.9704 8.01182 53 6" stroke="#913636" stroke-width="3" stroke-linecap="round"/>
</svg>
